<svg width="75" height="48" viewBox="0 0 75 48" fill="none" xmlns="http://www.w3.org/2000/svg">
<path d="M13.5227 47L0.204545 0.454544H10.9545L18.6591 32.7955H19.0455L27.5455 0.454544H36.75L45.2273 32.8636H45.6364L53.3409 0.454544H64.0909L50.7727 47H41.1818L32.3182 16.5682H31.9545L23.1136 47H13.5227ZM68.6477 47.5909C67.1477 47.5909 65.8598 47.0606 64.7841 46C63.7235 44.9242 63.1932 43.6364 63.1932 42.1364C63.1932 40.6515 63.7235 39.3788 64.7841 38.3182C65.8598 37.2576 67.1477 36.7273 68.6477 36.7273C70.1023 36.7273 71.375 37.2576 72.4659 38.3182C73.5568 39.3788 74.1023 40.6515 74.1023 42.1364C74.1023 43.1364 73.8447 44.053 73.3295 44.8864C72.8295 45.7045 72.1705 46.3636 71.3523 46.8636C70.5341 47.3485 69.6326 47.5909 68.6477 47.5909Z" fill="black"/>
</svg>
