<svg width="41" height="41" viewBox="0 0 41 41" fill="none" xmlns="http://www.w3.org/2000/svg">
<path d="M31.0763 5.25829L32.279 7.68412C32.381 7.86588 32.5201 8.02414 32.6873 8.14864C32.8544 8.27313 33.0459 8.36107 33.2493 8.40675L35.4291 8.77062C36.8231 9.00467 37.1511 10.0245 36.1466 11.0307L34.452 12.7391C34.3034 12.9073 34.1944 13.1065 34.1329 13.3223C34.0714 13.5381 34.059 13.765 34.0966 13.9862L34.5818 16.1011C34.9645 17.7752 34.083 18.4227 32.6138 17.548L30.5706 16.3283C30.3616 16.2199 30.1296 16.1633 29.8941 16.1633C29.6587 16.1633 29.4266 16.2199 29.2176 16.3283L27.1745 17.548C25.7121 18.4227 24.8238 17.7684 25.2065 16.1011L25.6916 13.9862C25.7292 13.765 25.7168 13.5381 25.6553 13.3223C25.5938 13.1065 25.4848 12.9073 25.3363 12.7391L23.6416 11.0307C22.6457 10.0245 22.9668 9.00467 24.3591 8.77062L26.539 8.40675C26.7412 8.36001 26.9315 8.2714 27.0974 8.14665C27.2634 8.02189 27.4014 7.86375 27.5025 7.68242L28.7051 5.25658C29.3611 3.94117 30.4271 3.94117 31.0763 5.25658" stroke="white" stroke-width="1.5" stroke-linecap="round" stroke-linejoin="round"/>
<path d="M4.27075 20.1668C4.27075 29.3132 11.6849 36.7291 20.833 36.7291C28.36 36.7291 34.7133 31.7083 36.7291 24.834C33.8931 26.893 30.4156 27.8728 26.9219 27.5972C23.4281 27.3216 20.1473 25.8088 17.6692 23.3307C15.191 20.8526 13.6782 17.5717 13.4026 14.0779C13.1271 10.5842 14.1069 7.10673 16.1659 4.27075C9.29325 6.28659 4.27075 12.6399 4.27075 20.1668Z" stroke="white" stroke-width="1.5" stroke-linecap="round" stroke-linejoin="round"/>
</svg>
